<mxfile host="app.diagrams.net" agent="Mozilla/5.0 (Windows NT 10.0; Win64; x64) AppleWebKit/537.36 (KHTML, like Gecko) Chrome/131.0.0.0 Safari/537.36" version="25.0.1">
  <diagram name="Page-1" id="6tAzVu0A0hgqs0OjR7d1">
    <mxGraphModel dx="1772" dy="1003" grid="1" gridSize="10" guides="1" tooltips="1" connect="1" arrows="1" fold="1" page="0" pageScale="1" pageWidth="850" pageHeight="1100" math="0" shadow="0">
      <root>
        <mxCell id="0" />
        <mxCell id="1" parent="0" />
        <mxCell id="Twsoq9i193tFfi6GUEwS-4" style="edgeStyle=orthogonalEdgeStyle;rounded=0;orthogonalLoop=1;jettySize=auto;html=1;" edge="1" parent="1" source="Twsoq9i193tFfi6GUEwS-1" target="Twsoq9i193tFfi6GUEwS-2">
          <mxGeometry relative="1" as="geometry" />
        </mxCell>
        <mxCell id="Twsoq9i193tFfi6GUEwS-1" value="start" style="strokeWidth=2;html=1;shape=mxgraph.flowchart.start_1;whiteSpace=wrap;" vertex="1" parent="1">
          <mxGeometry x="140" y="-250" width="100" height="60" as="geometry" />
        </mxCell>
        <mxCell id="Twsoq9i193tFfi6GUEwS-5" value="" style="edgeStyle=orthogonalEdgeStyle;rounded=0;orthogonalLoop=1;jettySize=auto;html=1;" edge="1" parent="1" source="Twsoq9i193tFfi6GUEwS-2" target="Twsoq9i193tFfi6GUEwS-3">
          <mxGeometry relative="1" as="geometry" />
        </mxCell>
        <mxCell id="Twsoq9i193tFfi6GUEwS-2" value="Choose a restaurant" style="rounded=1;whiteSpace=wrap;html=1;" vertex="1" parent="1">
          <mxGeometry x="300" y="-245" width="110" height="50" as="geometry" />
        </mxCell>
        <mxCell id="Twsoq9i193tFfi6GUEwS-13" value="" style="edgeStyle=orthogonalEdgeStyle;rounded=0;orthogonalLoop=1;jettySize=auto;html=1;" edge="1" parent="1" source="Twsoq9i193tFfi6GUEwS-3" target="Twsoq9i193tFfi6GUEwS-11">
          <mxGeometry relative="1" as="geometry" />
        </mxCell>
        <mxCell id="Twsoq9i193tFfi6GUEwS-3" value="Browse Menu" style="rounded=1;whiteSpace=wrap;html=1;" vertex="1" parent="1">
          <mxGeometry x="460" y="-245" width="110" height="50" as="geometry" />
        </mxCell>
        <mxCell id="Twsoq9i193tFfi6GUEwS-29" value="" style="edgeStyle=orthogonalEdgeStyle;rounded=0;orthogonalLoop=1;jettySize=auto;html=1;" edge="1" parent="1" source="Twsoq9i193tFfi6GUEwS-11" target="Twsoq9i193tFfi6GUEwS-22">
          <mxGeometry relative="1" as="geometry" />
        </mxCell>
        <mxCell id="Twsoq9i193tFfi6GUEwS-11" value="&lt;p data-pm-slice=&quot;0 0 []&quot;&gt;Select Food Items&lt;/p&gt;" style="rounded=1;whiteSpace=wrap;html=1;" vertex="1" parent="1">
          <mxGeometry x="620" y="-245" width="110" height="50" as="geometry" />
        </mxCell>
        <mxCell id="Twsoq9i193tFfi6GUEwS-17" value="" style="edgeStyle=orthogonalEdgeStyle;rounded=0;orthogonalLoop=1;jettySize=auto;html=1;" edge="1" parent="1" source="Twsoq9i193tFfi6GUEwS-14" target="Twsoq9i193tFfi6GUEwS-16">
          <mxGeometry relative="1" as="geometry" />
        </mxCell>
        <mxCell id="Twsoq9i193tFfi6GUEwS-14" value="Confirm Order" style="rounded=1;whiteSpace=wrap;html=1;" vertex="1" parent="1">
          <mxGeometry x="790" y="-150" width="110" height="50" as="geometry" />
        </mxCell>
        <mxCell id="Twsoq9i193tFfi6GUEwS-19" value="" style="edgeStyle=orthogonalEdgeStyle;rounded=0;orthogonalLoop=1;jettySize=auto;html=1;" edge="1" parent="1" source="Twsoq9i193tFfi6GUEwS-16" target="Twsoq9i193tFfi6GUEwS-18">
          <mxGeometry relative="1" as="geometry" />
        </mxCell>
        <mxCell id="Twsoq9i193tFfi6GUEwS-16" value="&lt;p data-pm-slice=&quot;0 0 []&quot;&gt;Choose Payment Method&lt;/p&gt;" style="rounded=1;whiteSpace=wrap;html=1;" vertex="1" parent="1">
          <mxGeometry x="620" y="-150" width="110" height="50" as="geometry" />
        </mxCell>
        <mxCell id="Twsoq9i193tFfi6GUEwS-39" value="" style="edgeStyle=orthogonalEdgeStyle;rounded=0;orthogonalLoop=1;jettySize=auto;html=1;" edge="1" parent="1" source="Twsoq9i193tFfi6GUEwS-18" target="Twsoq9i193tFfi6GUEwS-38">
          <mxGeometry relative="1" as="geometry" />
        </mxCell>
        <mxCell id="Twsoq9i193tFfi6GUEwS-18" value="&lt;p data-pm-slice=&quot;0 0 []&quot;&gt;Make Payement&lt;/p&gt;" style="rounded=1;whiteSpace=wrap;html=1;" vertex="1" parent="1">
          <mxGeometry x="460" y="-150" width="110" height="50" as="geometry" />
        </mxCell>
        <mxCell id="Twsoq9i193tFfi6GUEwS-20" value="&lt;p data-pm-slice=&quot;0 0 []&quot;&gt;Receive Confirmation&lt;/p&gt;" style="rounded=1;whiteSpace=wrap;html=1;" vertex="1" parent="1">
          <mxGeometry x="150" y="-150" width="110" height="50" as="geometry" />
        </mxCell>
        <mxCell id="Twsoq9i193tFfi6GUEwS-31" style="edgeStyle=orthogonalEdgeStyle;rounded=0;orthogonalLoop=1;jettySize=auto;html=1;entryX=0.5;entryY=0;entryDx=0;entryDy=0;exitX=0.5;exitY=0;exitDx=0;exitDy=0;" edge="1" parent="1" source="Twsoq9i193tFfi6GUEwS-22" target="Twsoq9i193tFfi6GUEwS-3">
          <mxGeometry relative="1" as="geometry" />
        </mxCell>
        <mxCell id="Twsoq9i193tFfi6GUEwS-33" value="Yes" style="edgeLabel;html=1;align=center;verticalAlign=middle;resizable=0;points=[];" vertex="1" connectable="0" parent="Twsoq9i193tFfi6GUEwS-31">
          <mxGeometry x="-0.0632" y="-1" relative="1" as="geometry">
            <mxPoint as="offset" />
          </mxGeometry>
        </mxCell>
        <mxCell id="Twsoq9i193tFfi6GUEwS-22" value="Is the cart empty?" style="rhombus;whiteSpace=wrap;html=1;" vertex="1" parent="1">
          <mxGeometry x="780" y="-255" width="90" height="70" as="geometry" />
        </mxCell>
        <mxCell id="Twsoq9i193tFfi6GUEwS-26" value="" style="endArrow=classic;html=1;rounded=0;exitX=0.5;exitY=1;exitDx=0;exitDy=0;" edge="1" parent="1" source="Twsoq9i193tFfi6GUEwS-22">
          <mxGeometry width="50" height="50" relative="1" as="geometry">
            <mxPoint x="750" y="-150" as="sourcePoint" />
            <mxPoint x="825" y="-150" as="targetPoint" />
          </mxGeometry>
        </mxCell>
        <mxCell id="Twsoq9i193tFfi6GUEwS-30" value="No" style="edgeLabel;html=1;align=center;verticalAlign=middle;resizable=0;points=[];" vertex="1" connectable="0" parent="Twsoq9i193tFfi6GUEwS-26">
          <mxGeometry x="-0.2249" relative="1" as="geometry">
            <mxPoint as="offset" />
          </mxGeometry>
        </mxCell>
        <mxCell id="Twsoq9i193tFfi6GUEwS-40" value="" style="edgeStyle=orthogonalEdgeStyle;rounded=0;orthogonalLoop=1;jettySize=auto;html=1;" edge="1" parent="1" source="Twsoq9i193tFfi6GUEwS-38" target="Twsoq9i193tFfi6GUEwS-20">
          <mxGeometry relative="1" as="geometry" />
        </mxCell>
        <mxCell id="Twsoq9i193tFfi6GUEwS-41" value="Yes" style="edgeLabel;html=1;align=center;verticalAlign=middle;resizable=0;points=[];" vertex="1" connectable="0" parent="Twsoq9i193tFfi6GUEwS-40">
          <mxGeometry x="-0.1945" y="1" relative="1" as="geometry">
            <mxPoint as="offset" />
          </mxGeometry>
        </mxCell>
        <mxCell id="Twsoq9i193tFfi6GUEwS-42" style="edgeStyle=orthogonalEdgeStyle;rounded=0;orthogonalLoop=1;jettySize=auto;html=1;entryX=0.5;entryY=1;entryDx=0;entryDy=0;exitX=0.5;exitY=1;exitDx=0;exitDy=0;" edge="1" parent="1" source="Twsoq9i193tFfi6GUEwS-38" target="Twsoq9i193tFfi6GUEwS-18">
          <mxGeometry relative="1" as="geometry" />
        </mxCell>
        <mxCell id="Twsoq9i193tFfi6GUEwS-43" value="No" style="edgeLabel;html=1;align=center;verticalAlign=middle;resizable=0;points=[];" vertex="1" connectable="0" parent="Twsoq9i193tFfi6GUEwS-42">
          <mxGeometry x="0.0026" y="-1" relative="1" as="geometry">
            <mxPoint as="offset" />
          </mxGeometry>
        </mxCell>
        <mxCell id="Twsoq9i193tFfi6GUEwS-38" value="Is payment successful?" style="rhombus;whiteSpace=wrap;html=1;" vertex="1" parent="1">
          <mxGeometry x="320" y="-160" width="90" height="70" as="geometry" />
        </mxCell>
        <mxCell id="Twsoq9i193tFfi6GUEwS-44" value="&lt;strong style=&quot;color: rgb(32, 33, 34); font-family: Lato, &amp;quot;Lucida Sans Unicode&amp;quot;, &amp;quot;Lucida Grande&amp;quot;, sans-serif; font-size: 19px; letter-spacing: 0.2px; text-align: left;&quot;&gt;Activity Diagram&lt;/strong&gt;" style="text;html=1;align=center;verticalAlign=middle;whiteSpace=wrap;rounded=0;" vertex="1" parent="1">
          <mxGeometry x="450" y="-20" width="170" height="30" as="geometry" />
        </mxCell>
      </root>
    </mxGraphModel>
  </diagram>
</mxfile>
